<?xml version="1.0" encoding="UTF-8"?>
<svg width="7.6198mm" height="13.07mm" version="1.1" viewBox="0 0 7.6196289 13.070319" xmlns="http://www.w3.org/2000/svg">
<g transform="translate(-38.4 -59.411)" aria-label="?">
<path d="m46.02 62.798q0 1.4464-1.1994 2.6282-0.19403 0.17639-0.56444 0.51153-0.9525 0.8643-1.1994 1.3758-0.19403 0.4057-0.19403 0.82903v0.82903h-1.5875v-0.97014q0-1.1289 1.1289-2.2401 0.15875-0.15875 0.49389-0.47625 1.0231-0.93486 1.3053-1.5169 0.22931-0.47625 0.22931-0.97014 0-1.2347-1.076-1.7639-0.52917-0.24694-1.1818-0.24694-1.8874 0-2.2049 1.7815-0.07055 0.44097-0.07055 0.97014h-1.4993q0-3.7218 3.175-4.0922 0.33514-0.03528 0.68792-0.03528 2.2225 0 3.2103 1.464 0.54681 0.82903 0.54681 1.9226zm-3.1574 7.8493v1.8344h-1.5875v-1.8344z" fill="#333"/>
</g>
</svg>

